{
  "asset": {
    "version": "2.0",
    "generator": "THREE.GLTFExporter"
  },
  "scenes": [
    {
      "name": "Scene",
      "nodes": [
        3
      ]
    }
  ],
  "scene": 0,
  "nodes": [
    {
      "matrix": [
        2.5,
        0,
        0,
        0,
        0,
        2.5,
        0,
        0,
        0,
        0,
        2.5,
        0,
        0,
        0.9241955611809836,
        4.85722573273506e-17,
        1
      ],
      "name": "Tulip_blue_06_Material_0",
      "extras": {
        "name": "Tulip_blue_06_Material_0"
      },
      "mesh": 0
    },
    {
      "matrix": [
        1,
        0,
        0,
        0,
        0,
        -1,
        1.2246467991473532e-16,
        0,
        0,
        -1.2246467991473532e-16,
        -1,
        0,
        0,
        0,
        0,
        1
      ],
      "name": "flower2gltf_1",
      "extras": {
        "name": "flower2.gltf"
      },
      "children": [
        0
      ]
    },
    {
      "matrix": [
        2,
        0,
        0,
        0,
        0,
        4.440892098500626e-16,
        2,
        0,
        0,
        -2,
        4.440892098500626e-16,
        0,
        0,
        0.12128823287792567,
        0.14500834299498244,
        1
      ],
      "name": "flower2gltf",
      "extras": {
        "name": "flower2.gltf"
      },
      "children": [
        1
      ]
    },
    {
      "matrix": [
        1,
        0,
        0,
        0,
        0,
        1,
        0,
        0,
        0,
        0,
        1,
        0,
        0,
        1.2031669182101414e-16,
        -0.9824603461568127,
        1
      ],
      "name": "scene_(25)gltf",
      "extras": {
        "name": "scene (25).gltf"
      },
      "children": [
        2
      ]
    }
  ],
  "bufferViews": [
    {
      "buffer": 0,
      "byteOffset": 0,
      "byteLength": 65988,
      "target": 34962,
      "byteStride": 12
    },
    {
      "buffer": 0,
      "byteOffset": 65988,
      "byteLength": 65988,
      "target": 34962,
      "byteStride": 12
    },
    {
      "buffer": 0,
      "byteOffset": 131976,
      "byteLength": 43992,
      "target": 34962,
      "byteStride": 8
    },
    {
      "buffer": 0,
      "byteOffset": 175968,
      "byteLength": 32760,
      "target": 34963
    }
  ],
  "buffers": [
    {
      "byteLength": 208728,
      "uri": "data:application/octet-stream;base64,"
    }
  ],
  "accessors": [
    {
      "bufferView": 0,
      "componentType": 5126,
      "count": 5499,
      "max": [
        0.9992162585258484,
        0.9990416765213013,
        0.9983121752738953
      ],
      "min": [
        -0.9993060827255249,
        -0.9952518343925476,
        -0.9996106624603271
      ],
      "type": "VEC3"
    },
    {
      "bufferView": 1,
      "componentType": 5126,
      "count": 5499,
      "max": [
        0.21360759437084198,
        0.20301134884357452,
        0.09849657118320465
      ],
      "min": [
        -0.22234512865543365,
        -0.4918172359466553,
        -0.1672232300043106
      ],
      "type": "VEC3"
    },
    {
      "bufferView": 2,
      "componentType": 5126,
      "count": 5499,
      "max": [
        0.8249015808105469,
        0.8096877932548523
      ],
      "min": [
        0.21820276975631714,
        0.19965538382530212
      ],
      "type": "VEC2"
    },
    {
      "bufferView": 3,
      "componentType": 5125,
      "count": 8190,
      "max": [
        5498
      ],
      "min": [
        0
      ],
      "type": "SCALAR"
    }
  ],
  "materials": [
    {
      "pbrMetallicRoughness": {
        "metallicFactor": 0,
        "roughnessFactor": 0.8211145618,
        "metallicRoughnessTexture": {
          "index": 0
        },
        "baseColorTexture": {
          "index": 1
        }
      },
      "occlusionTexture": {
        "index": 0,
        "texCoord": 1,
        "strength": 0.7252506551386584
      },
      "doubleSided": true,
      "name": "Material"
    }
  ],
  "textures": [
    {
      "sampler": 0,
      "source": 0
    },
    {
      "sampler": 1,
      "source": 1
    }
  ],
  "samplers": [
    {
      "magFilter": 9729,
      "minFilter": 9987,
      "wrapS": 10497,
      "wrapT": 10497
    },
    {
      "magFilter": 9729,
      "minFilter": 9987,
      "wrapS": 10497,
      "wrapT": 10497
    }
  ],
  "images": [
    {
      "mimeType": "image/png",
      "uri": "data:image/png;base64,"
    },
    {
      "mimeType": "image/png",
      "uri": "data:image/png;base64,"
    }
  ],
  "meshes": [
    {
      "primitives": [
        {
          "mode": 4,
          "attributes": {
            "NORMAL": 0,
            "POSITION": 1,
            "TEXCOORD_0": 2,
            "TEXCOORD_1": 2
          },
          "indices": 3,
          "material": 0
        }
      ]
    }
  ]
}