{
  "asset": {
    "version": "2.0",
    "generator": "THREE.GLTFExporter"
  },
  "scenes": [
    {
      "name": "Scene",
      "nodes": [
        1
      ]
    }
  ],
  "scene": 0,
  "nodes": [
    {
      "matrix": [
        4,
        0,
        0,
        0,
        0,
        -4,
        4.898587196589413e-16,
        0,
        0,
        -4.898587196589413e-16,
        -4,
        0,
        0,
        1.8386136408850277e-16,
        -0.760658815987723,
        1
      ],
      "name": "PP_Fly_Agaric_08_Material001_0",
      "extras": {
        "name": "PP_Fly_Agaric_08_Material.001_0"
      },
      "mesh": 0
    },
    {
      "name": "mushroom.gltf",
      "children": [
        0
      ]
    }
  ],
  "bufferViews": [
    {
      "buffer": 0,
      "byteOffset": 0,
      "byteLength": 14244,
      "target": 34962,
      "byteStride": 12
    },
    {
      "buffer": 0,
      "byteOffset": 14244,
      "byteLength": 14244,
      "target": 34962,
      "byteStride": 12
    },
    {
      "buffer": 0,
      "byteOffset": 28488,
      "byteLength": 9496,
      "target": 34962,
      "byteStride": 8
    },
    {
      "buffer": 0,
      "byteOffset": 37984,
      "byteLength": 5436,
      "target": 34963
    }
  ],
  "buffers": [
    {
      "byteLength": 43420,
      "uri": "data:application/octet-stream;base64,"
    }
  ],
  "accessors": [
    {
      "bufferView": 0,
      "componentType": 5126,
      "count": 1187,
      "max": [
        0.9847109317779541,
        0.9873122572898865,
        0.973463237285614
      ],
      "min": [
        -0.9848027229309082,
        -0.9999452829360962,
        -1
      ],
      "type": "VEC3"
    },
    {
      "bufferView": 1,
      "componentType": 5126,
      "count": 1187,
      "max": [
        0.19458769261837006,
        0.21439078450202942,
        0.16884219646453857
      ],
      "min": [
        -0.20631791651248932,
        -0.190029114484787,
        -0.18198204040527344
      ],
      "type": "VEC3"
    },
    {
      "bufferView": 2,
      "componentType": 5126,
      "count": 1187,
      "max": [
        0.5620079040527344,
        0.9915077686309814
      ],
      "min": [
        0.005053415894508362,
        0.022374924272298813
      ],
      "type": "VEC2"
    },
    {
      "bufferView": 3,
      "componentType": 5125,
      "count": 1359,
      "max": [
        1186
      ],
      "min": [
        0
      ],
      "type": "SCALAR"
    }
  ],
  "materials": [
    {
      "pbrMetallicRoughness": {
        "metallicFactor": 0,
        "roughnessFactor": 0.8211145618,
        "baseColorTexture": {
          "index": 0
        }
      },
      "doubleSided": true,
      "name": "Material.001"
    }
  ],
  "textures": [
    {
      "sampler": 0,
      "source": 0
    }
  ],
  "samplers": [
    {
      "magFilter": 9729,
      "minFilter": 9987,
      "wrapS": 10497,
      "wrapT": 10497
    }
  ],
  "images": [
    {
      "mimeType": "image/png",
      "uri": "data:image/png;base64,"
    }
  ],
  "meshes": [
    {
      "primitives": [
        {
          "mode": 4,
          "attributes": {
            "NORMAL": 0,
            "POSITION": 1,
            "TEXCOORD_0": 2
          },
          "indices": 3,
          "material": 0
        }
      ]
    }
  ]
}