{
  "asset": {
    "version": "2.0",
    "generator": "THREE.GLTFExporter"
  },
  "scenes": [
    {
      "name": "Scene",
      "nodes": [
        3
      ]
    }
  ],
  "scene": 0,
  "nodes": [
    {
      "matrix": [
        0.35978139365897505,
        0.10774205336773597,
        -0.027015610814444216,
        0,
        -0.11665975302099436,
        0.3621618330883333,
        -0.10926826706678003,
        0,
        -0.0037556413568018187,
        0.08019088477465756,
        0.2697966281653228,
        0,
        1.0414991005658594,
        0.8745270300129431,
        0.24359302156645934,
        1
      ],
      "name": "Hornbeam_Leaf_Low-Poly_0",
      "extras": {
        "name": "Hornbeam_Leaf_Low-Poly_0"
      },
      "mesh": 0
    },
    {
      "matrix": [
        0.9573852206399117,
        0.28877866379590633,
        -0.004519141126200471,
        0,
        -0.07347770467355454,
        0.2586726882756969,
        0.9631663756880895,
        0,
        0.27931087736816396,
        -0.9217891969840366,
        0.2688682021127665,
        0,
        -1.0062974600832153,
        0.3792412207862541,
        0.21329568295728563,
        1
      ],
      "name": "branch_0",
      "extras": {
        "name": "branch_0"
      },
      "mesh": 1
    },
    {
      "matrix": [
        1.4539918526911653,
        0,
        0,
        0,
        0,
        0.4980346005879804,
        -1.366035813699428,
        0,
        0,
        1.366035813699428,
        0.4980346005879804,
        0,
        0,
        0,
        0,
        1
      ],
      "name": "Group",
      "extras": {
        "name": "Group"
      },
      "children": [
        0,
        1
      ]
    },
    {
      "matrix": [
        1,
        0,
        0,
        0,
        0,
        1,
        0,
        0,
        0,
        0,
        1,
        0,
        0,
        0,
        -0.5213361815694715,
        1
      ],
      "name": "branch.gltf",
      "children": [
        2
      ]
    }
  ],
  "bufferViews": [
    {
      "buffer": 0,
      "byteOffset": 0,
      "byteLength": 624,
      "target": 34962,
      "byteStride": 12
    },
    {
      "buffer": 0,
      "byteOffset": 624,
      "byteLength": 624,
      "target": 34962,
      "byteStride": 12
    },
    {
      "buffer": 0,
      "byteOffset": 1248,
      "byteLength": 832,
      "target": 34962,
      "byteStride": 16
    },
    {
      "buffer": 0,
      "byteOffset": 2080,
      "byteLength": 416,
      "target": 34962,
      "byteStride": 8
    },
    {
      "buffer": 0,
      "byteOffset": 2496,
      "byteLength": 416,
      "target": 34962,
      "byteStride": 8
    },
    {
      "buffer": 0,
      "byteOffset": 2912,
      "byteLength": 648,
      "target": 34963
    },
    {
      "buffer": 0,
      "byteOffset": 3560,
      "byteLength": 2952,
      "target": 34962,
      "byteStride": 12
    },
    {
      "buffer": 0,
      "byteOffset": 6512,
      "byteLength": 2952,
      "target": 34962,
      "byteStride": 12
    },
    {
      "buffer": 0,
      "byteOffset": 9464,
      "byteLength": 3936,
      "target": 34962,
      "byteStride": 16
    },
    {
      "buffer": 0,
      "byteOffset": 13400,
      "byteLength": 1968,
      "target": 34962,
      "byteStride": 8
    },
    {
      "buffer": 0,
      "byteOffset": 15368,
      "byteLength": 1968,
      "target": 34962,
      "byteStride": 8
    },
    {
      "buffer": 0,
      "byteOffset": 17336,
      "byteLength": 1968,
      "target": 34962,
      "byteStride": 8
    },
    {
      "buffer": 0,
      "byteOffset": 19304,
      "byteLength": 2400,
      "target": 34963
    }
  ],
  "buffers": [
    {
      "byteLength": 21704,
      "uri": "data:application/octet-stream;base64,"
    }
  ],
  "accessors": [
    {
      "bufferView": 0,
      "componentType": 5126,
      "count": 52,
      "max": [
        0.5127442479133606,
        0.03180009499192238,
        0.9999278783798218
      ],
      "min": [
        -0.5127442479133606,
        -1,
        -0.9999552369117737
      ],
      "type": "VEC3"
    },
    {
      "bufferView": 1,
      "componentType": 5126,
      "count": 52,
      "max": [
        0.5978800058364868,
        2.040640115737915,
        0.034449998289346695
      ],
      "min": [
        -0.5978800058364868,
        -0.004699999932199717,
        -0.015449999831616879
      ],
      "type": "VEC3"
    },
    {
      "bufferView": 2,
      "componentType": 5126,
      "count": 52,
      "max": [
        0.9994958639144897,
        0.15019173920154572,
        0.5120527744293213,
        1
      ],
      "min": [
        -0.9993860721588135,
        -0.04045099392533302,
        -0.5127904415130615,
        1
      ],
      "type": "VEC4"
    },
    {
      "bufferView": 3,
      "componentType": 5126,
      "count": 52,
      "max": [
        0.9922599792480469,
        0.9813299775123596
      ],
      "min": [
        0.004110000096261501,
        -0.002460000105202198
      ],
      "type": "VEC2"
    },
    {
      "bufferView": 4,
      "componentType": 5126,
      "count": 52,
      "max": [
        0.9922599792480469,
        0.9813299775123596
      ],
      "min": [
        0.004110000096261501,
        -0.002460000105202198
      ],
      "type": "VEC2"
    },
    {
      "bufferView": 5,
      "componentType": 5125,
      "count": 162,
      "max": [
        51
      ],
      "min": [
        0
      ],
      "type": "SCALAR"
    },
    {
      "bufferView": 6,
      "componentType": 5126,
      "count": 246,
      "max": [
        0.9890447854995728,
        0.9707061052322388,
        0.9976238012313843
      ],
      "min": [
        -0.9226702451705933,
        -0.9921577572822571,
        -0.9998957514762878
      ],
      "type": "VEC3"
    },
    {
      "bufferView": 7,
      "componentType": 5126,
      "count": 246,
      "max": [
        2.737610101699829,
        0.09556999802589417,
        0.9015200138092041
      ],
      "min": [
        -0.4610399901866913,
        -2.152209997177124,
        -0.03931000083684921
      ],
      "type": "VEC3"
    },
    {
      "bufferView": 8,
      "componentType": 5126,
      "count": 246,
      "max": [
        0.8999865055084229,
        0.9994387030601501,
        0.9996638894081116,
        1
      ],
      "min": [
        -0.9998130202293396,
        -0.9963087439537048,
        -0.973467230796814,
        -1
      ],
      "type": "VEC4"
    },
    {
      "bufferView": 9,
      "componentType": 5126,
      "count": 246,
      "max": [
        0.9892100095748901,
        0.9667500257492065
      ],
      "min": [
        0.007249999791383743,
        0.0025500000920146704
      ],
      "type": "VEC2"
    },
    {
      "bufferView": 10,
      "componentType": 5126,
      "count": 246,
      "max": [
        0.9892100095748901,
        0.9667500257492065
      ],
      "min": [
        0.007249999791383743,
        0.0025500000920146704
      ],
      "type": "VEC2"
    },
    {
      "bufferView": 11,
      "componentType": 5126,
      "count": 246,
      "max": [
        0.9892100095748901,
        0.9667500257492065
      ],
      "min": [
        0.007249999791383743,
        0.0025500000920146704
      ],
      "type": "VEC2"
    },
    {
      "bufferView": 12,
      "componentType": 5125,
      "count": 600,
      "max": [
        245
      ],
      "min": [
        0
      ],
      "type": "SCALAR"
    }
  ],
  "materials": [
    {
      "pbrMetallicRoughness": {
        "baseColorFactor": [
          0.06274509803921569,
          0.28627450980392155,
          0.03137254901960784,
          1
        ],
        "metallicFactor": 0,
        "roughnessFactor": 0.9
      },
      "extensions": {
        "KHR_materials_unlit": {}
      }
    },
    {
      "pbrMetallicRoughness": {
        "baseColorFactor": [
          0.3803921568627451,
          0.23921568627450981,
          0.0392156862745098,
          1
        ],
        "metallicFactor": 0,
        "roughnessFactor": 1,
        "metallicRoughnessTexture": {
          "index": 0
        }
      },
      "normalTexture": {
        "index": 1
      },
      "occlusionTexture": {
        "index": 0,
        "texCoord": 1
      }
    }
  ],
  "meshes": [
    {
      "primitives": [
        {
          "mode": 4,
          "attributes": {
            "NORMAL": 0,
            "POSITION": 1,
            "TANGENT": 2,
            "TEXCOORD_0": 3,
            "TEXCOORD_1": 4
          },
          "indices": 5,
          "material": 0
        }
      ]
    },
    {
      "primitives": [
        {
          "mode": 4,
          "attributes": {
            "NORMAL": 6,
            "POSITION": 7,
            "TANGENT": 8,
            "TEXCOORD_0": 9,
            "TEXCOORD_1": 10,
            "TEXCOORD_2": 11
          },
          "indices": 12,
          "material": 1
        }
      ]
    }
  ],
  "textures": [
    {
      "sampler": 0,
      "source": 0
    },
    {
      "sampler": 1,
      "source": 1
    }
  ],
  "samplers": [
    {
      "magFilter": 9729,
      "minFilter": 9987,
      "wrapS": 10497,
      "wrapT": 10497
    },
    {
      "magFilter": 9729,
      "minFilter": 9987,
      "wrapS": 10497,
      "wrapT": 10497
    }
  ],
  "images": [
    {
      "mimeType": "image/png",
      "uri": "data:image/png;base64,"
    },
    {
      "mimeType": "image/png",
      "uri": "data:image/png;base64,"
    }
  ],
  "extensionsUsed": [
    "KHR_materials_unlit"
  ]
}