{
  "asset": {
    "version": "2.0",
    "generator": "THREE.GLTFExporter"
  },
  "scenes": [
    {
      "name": "Scene",
      "nodes": [
        2
      ]
    }
  ],
  "scene": 0,
  "nodes": [
    {
      "matrix": [
        0.7,
        0,
        0,
        0,
        0,
        0.7,
        0,
        0,
        0,
        0,
        0.7,
        0,
        0,
        0,
        0,
        1
      ],
      "name": "Icosphere",
      "extras": {
        "name": "Icosphere"
      },
      "mesh": 0
    },
    {
      "matrix": [
        1.0032817977215287,
        0,
        0,
        0,
        0,
        1.0032817977215287,
        0,
        0,
        0,
        0,
        1.0032817977215287,
        0,
        0,
        0,
        0,
        1
      ],
      "name": "playergltf",
      "extras": {
        "name": "player.gltf"
      },
      "children": [
        0
      ]
    },
    {
      "name": "player.gltf",
      "children": [
        1
      ]
    }
  ],
  "bufferViews": [
    {
      "buffer": 0,
      "byteOffset": 0,
      "byteLength": 38880,
      "target": 34962,
      "byteStride": 12
    },
    {
      "buffer": 0,
      "byteOffset": 38880,
      "byteLength": 38880,
      "target": 34962,
      "byteStride": 12
    },
    {
      "buffer": 0,
      "byteOffset": 77760,
      "byteLength": 25920,
      "target": 34962,
      "byteStride": 8
    },
    {
      "buffer": 0,
      "byteOffset": 103680,
      "byteLength": 9696,
      "target": 34963
    }
  ],
  "buffers": [
    {
      "byteLength": 113376,
      "uri": "data:application/octet-stream;base64,"
    }
  ],
  "accessors": [
    {
      "bufferView": 0,
      "componentType": 5126,
      "count": 3240,
      "max": [
        1.7747526168823242,
        1.8506542444229126,
        1.7389955520629883
      ],
      "min": [
        -1.7747526168823242,
        -1.8506542444229126,
        -1.7389955520629883
      ],
      "type": "VEC3"
    },
    {
      "bufferView": 1,
      "componentType": 5126,
      "count": 3240,
      "max": [
        1,
        0.9999999403953552,
        0.9998899102210999
      ],
      "min": [
        -1,
        -1,
        -0.9998898506164551
      ],
      "type": "VEC3"
    },
    {
      "bufferView": 2,
      "componentType": 5126,
      "count": 3240,
      "max": [
        0.9545450806617737,
        0.9212695360183716
      ],
      "min": [
        0.045454494655132294,
        0.6063485145568848
      ],
      "type": "VEC2"
    },
    {
      "bufferView": 3,
      "componentType": 5123,
      "count": 4848,
      "max": [
        3239
      ],
      "min": [
        0
      ],
      "type": "SCALAR"
    }
  ],
  "materials": [
    {
      "pbrMetallicRoughness": {
        "metallicFactor": 0,
        "roughnessFactor": 1
      }
    }
  ],
  "meshes": [
    {
      "primitives": [
        {
          "mode": 4,
          "attributes": {
            "POSITION": 0,
            "NORMAL": 1,
            "TEXCOORD_0": 2
          },
          "indices": 3,
          "material": 0
        }
      ]
    }
  ]
}