{
  "asset": {
    "version": "2.0",
    "generator": "THREE.GLTFExporter"
  },
  "scenes": [
    {
      "name": "Scene",
      "nodes": [
        2
      ]
    }
  ],
  "scene": 0,
  "nodes": [
    {
      "matrix": [
        0.18693794014334475,
        0,
        0,
        0,
        0,
        0.18256997867123048,
        0,
        0,
        0,
        0,
        0.2963676642175452,
        0,
        -0.056319983313061026,
        -0.07339213521459605,
        -0.2425370997379373,
        1
      ],
      "name": "Icosphere003_Material002_0",
      "extras": {
        "name": "Icosphere.003_Material.002_0"
      },
      "mesh": 0
    },
    {
      "matrix": [
        3.7118763549446157,
        0,
        0,
        0,
        0,
        3.7118763549446157,
        0,
        0,
        0,
        0,
        3.7118763549446157,
        0,
        0,
        0.01065807868895674,
        -0.2890741103998651,
        1
      ],
      "name": "asdadsgltf",
      "extras": {
        "name": "asdads.gltf"
      },
      "children": [
        0
      ]
    },
    {
      "matrix": [
        1,
        0,
        0,
        0,
        0,
        1,
        0,
        0,
        0,
        0,
        1,
        0,
        0,
        0,
        -1.453413568364119,
        1
      ],
      "name": "rock1.gltf",
      "children": [
        1
      ]
    }
  ],
  "bufferViews": [
    {
      "buffer": 0,
      "byteOffset": 0,
      "byteLength": 2880,
      "target": 34962,
      "byteStride": 12
    },
    {
      "buffer": 0,
      "byteOffset": 2880,
      "byteLength": 2880,
      "target": 34962,
      "byteStride": 12
    },
    {
      "buffer": 0,
      "byteOffset": 5760,
      "byteLength": 1920,
      "target": 34962,
      "byteStride": 8
    },
    {
      "buffer": 0,
      "byteOffset": 7680,
      "byteLength": 1872,
      "target": 34963
    }
  ],
  "buffers": [
    {
      "byteLength": 9552,
      "uri": "data:application/octet-stream;base64,"
    }
  ],
  "accessors": [
    {
      "bufferView": 0,
      "componentType": 5126,
      "count": 240,
      "max": [
        0.9812104105949402,
        0.9605264663696289,
        0.9980124235153198
      ],
      "min": [
        -0.975668728351593,
        -0.9071846604347229,
        -0.9962772727012634
      ],
      "type": "VEC3"
    },
    {
      "bufferView": 1,
      "componentType": 5126,
      "count": 240,
      "max": [
        1.288100242614746,
        1.4015270471572876,
        1.2943480014801025
      ],
      "min": [
        -0.8249377012252808,
        -0.8939345479011536,
        0.22200942039489746
      ],
      "type": "VEC3"
    },
    {
      "bufferView": 2,
      "componentType": 5126,
      "count": 240,
      "max": [
        1,
        1
      ],
      "min": [
        0,
        0
      ],
      "type": "VEC2"
    },
    {
      "bufferView": 3,
      "componentType": 5125,
      "count": 468,
      "max": [
        239
      ],
      "min": [
        0
      ],
      "type": "SCALAR"
    }
  ],
  "materials": [
    {
      "pbrMetallicRoughness": {
        "baseColorFactor": [
          0.5,
          0.5,
          0.5,
          1
        ],
        "metallicFactor": 0,
        "roughnessFactor": 0.8211145618
      },
      "doubleSided": true,
      "name": "Material.002"
    }
  ],
  "meshes": [
    {
      "primitives": [
        {
          "mode": 4,
          "attributes": {
            "NORMAL": 0,
            "POSITION": 1,
            "TEXCOORD_0": 2
          },
          "indices": 3,
          "material": 0
        }
      ]
    }
  ]
}